<svg width="221" height="35" viewBox="0 0 221 35" fill="none" xmlns="http://www.w3.org/2000/svg">
<path d="M13.688 27V21.204H12.86V14.76C12.86 13.632 12.584 12.792 12.032 12.24C11.48 11.688 10.628 11.412 9.476 11.412C8.876 11.412 8.156 11.424 7.316 11.448C6.476 11.472 5.624 11.508 4.76 11.556C3.92 11.58 3.164 11.616 2.492 11.664V7.416C3.044 7.368 3.668 7.32 4.364 7.272C5.06 7.224 5.768 7.2 6.488 7.2C7.232 7.176 7.928 7.164 8.576 7.164C10.592 7.164 12.26 7.428 13.58 7.956C14.924 8.484 15.932 9.312 16.604 10.44C17.3 11.568 17.648 13.044 17.648 14.868V27H13.688ZM7.388 27.504C5.972 27.504 4.724 27.252 3.644 26.748C2.588 26.244 1.76 25.524 1.16 24.588C0.584 23.652 0.296 22.524 0.296 21.204C0.296 19.764 0.644 18.588 1.34 17.676C2.06 16.764 3.056 16.08 4.328 15.624C5.624 15.168 7.136 14.94 8.864 14.94H13.4V17.928H8.792C7.64 17.928 6.752 18.216 6.128 18.792C5.528 19.344 5.228 20.064 5.228 20.952C5.228 21.84 5.528 22.56 6.128 23.112C6.752 23.664 7.64 23.94 8.792 23.94C9.488 23.94 10.124 23.82 10.7 23.58C11.3 23.316 11.792 22.884 12.176 22.284C12.584 21.66 12.812 20.82 12.86 19.764L14.084 21.168C13.964 22.536 13.628 23.688 13.076 24.624C12.548 25.56 11.804 26.28 10.844 26.784C9.908 27.264 8.756 27.504 7.388 27.504ZM22.186 34.704V30.42H25.858C26.554 30.42 27.13 30.324 27.586 30.132C28.066 29.964 28.462 29.676 28.774 29.268C29.086 28.884 29.326 28.344 29.494 27.648L34.75 7.452H39.538L33.742 28.728C33.358 30.192 32.818 31.356 32.122 32.22C31.426 33.108 30.526 33.744 29.422 34.128C28.342 34.512 26.998 34.704 25.39 34.704H22.186ZM28.27 26.568V22.608H32.446V26.568H28.27ZM26.578 26.568L20.242 7.452H25.282L31.294 26.568H26.578ZM49.6368 27.612C47.3808 27.612 45.6288 26.868 44.3808 25.38C43.1568 23.892 42.5448 21.684 42.5448 18.756V7.416H47.5488V19.188C47.5488 20.388 47.8848 21.348 48.5568 22.068C49.2288 22.764 50.1408 23.112 51.2928 23.112C52.4448 23.112 53.3808 22.74 54.1008 21.996C54.8448 21.252 55.2168 20.244 55.2168 18.972V7.416H60.2208V27H56.2608V18.684H56.6568C56.6568 20.652 56.4048 22.296 55.9008 23.616C55.3968 24.936 54.6408 25.932 53.6328 26.604C52.6248 27.276 51.3648 27.612 49.8528 27.612H49.6368ZM73.061 27.612C70.373 27.612 68.261 27.048 66.725 25.92C65.213 24.768 64.421 23.184 64.349 21.168H68.849C68.921 21.84 69.293 22.452 69.965 23.004C70.637 23.556 71.693 23.832 73.133 23.832C74.333 23.832 75.281 23.616 75.977 23.184C76.697 22.752 77.057 22.164 77.057 21.42C77.057 20.772 76.781 20.256 76.229 19.872C75.701 19.488 74.789 19.236 73.493 19.116L71.765 18.936C69.581 18.696 67.901 18.072 66.725 17.064C65.549 16.056 64.961 14.712 64.961 13.032C64.961 11.688 65.297 10.56 65.969 9.648C66.641 8.736 67.565 8.052 68.741 7.596C69.941 7.116 71.309 6.876 72.845 6.876C75.245 6.876 77.189 7.404 78.677 8.46C80.165 9.516 80.945 11.064 81.017 13.104H76.517C76.469 12.432 76.133 11.856 75.509 11.376C74.885 10.896 73.985 10.656 72.809 10.656C71.753 10.656 70.937 10.86 70.361 11.268C69.785 11.676 69.497 12.204 69.497 12.852C69.497 13.476 69.725 13.956 70.181 14.292C70.661 14.628 71.429 14.856 72.485 14.976L74.213 15.156C76.517 15.396 78.317 16.032 79.613 17.064C80.933 18.096 81.593 19.488 81.593 21.24C81.593 22.536 81.233 23.664 80.513 24.624C79.817 25.56 78.833 26.292 77.561 26.82C76.289 27.348 74.789 27.612 73.061 27.612ZM85.7268 27V0.719999H90.7308V16.056H89.8668C89.8668 14.088 90.1188 12.42 90.6228 11.052C91.1268 9.684 91.8708 8.64 92.8548 7.92C93.8628 7.2 95.1348 6.84 96.6708 6.84H96.8868C99.1188 6.84 100.811 7.608 101.963 9.144C103.115 10.68 103.691 12.912 103.691 15.84V27H98.6868V15.372C98.6868 14.124 98.3268 13.14 97.6068 12.42C96.9108 11.7 95.9868 11.34 94.8348 11.34C93.6108 11.34 92.6148 11.748 91.8468 12.564C91.1028 13.356 90.7308 14.4 90.7308 15.696V27H85.7268Z" fill="white"/>
<path d="M114.584 34.344V32.58H116.744C117.584 32.58 118.316 32.472 118.94 32.256C119.564 32.064 120.104 31.704 120.56 31.176C121.04 30.648 121.436 29.892 121.748 28.908L128.48 8.1H130.388L123.368 29.52C122.984 30.696 122.468 31.632 121.82 32.328C121.196 33.048 120.44 33.564 119.552 33.876C118.688 34.188 117.704 34.344 116.6 34.344H114.584ZM121.136 26.532V24.84H123.8V26.532H121.136ZM120.776 26.532L113.9 8.1H115.844L122.648 26.532H120.776ZM146.932 27V21.348H146.572V14.4C146.572 12.888 146.176 11.724 145.384 10.908C144.592 10.068 143.284 9.648 141.46 9.648C140.812 9.648 140.152 9.672 139.48 9.72C138.808 9.744 138.172 9.78 137.572 9.828C136.972 9.852 136.432 9.9 135.952 9.972V8.244C136.432 8.172 136.936 8.112 137.464 8.064C138.016 8.016 138.568 7.98 139.12 7.956C139.672 7.932 140.2 7.92 140.704 7.92C142.6 7.92 144.112 8.172 145.24 8.676C146.368 9.156 147.184 9.9 147.688 10.908C148.192 11.892 148.444 13.152 148.444 14.688V27H146.932ZM140.344 27.504C139.072 27.504 137.932 27.276 136.924 26.82C135.916 26.364 135.112 25.692 134.512 24.804C133.936 23.916 133.648 22.836 133.648 21.564C133.648 20.34 133.924 19.296 134.476 18.432C135.052 17.568 135.868 16.908 136.924 16.452C138.004 15.996 139.3 15.768 140.812 15.768H146.752V17.316H140.632C139 17.316 137.74 17.712 136.852 18.504C135.988 19.272 135.556 20.292 135.556 21.564C135.556 22.908 136.024 23.976 136.96 24.768C137.896 25.536 139.12 25.92 140.632 25.92C141.568 25.92 142.48 25.74 143.368 25.38C144.256 25.02 145 24.42 145.6 23.58C146.2 22.716 146.524 21.564 146.572 20.124L147.292 20.952C147.22 22.416 146.86 23.64 146.212 24.624C145.588 25.584 144.772 26.304 143.764 26.784C142.756 27.264 141.616 27.504 140.344 27.504ZM163.187 27.612C161.771 27.612 160.487 27.348 159.335 26.82C158.207 26.268 157.247 25.536 156.455 24.624C155.663 23.688 155.051 22.632 154.619 21.456C154.211 20.28 154.007 19.044 154.007 17.748V17.388C154.007 16.14 154.211 14.94 154.619 13.788C155.027 12.612 155.615 11.556 156.383 10.62C157.175 9.66 158.135 8.904 159.263 8.352C160.391 7.8 161.687 7.524 163.151 7.524C164.855 7.524 166.331 7.908 167.579 8.676C168.851 9.444 169.835 10.5 170.531 11.844C171.251 13.164 171.635 14.676 171.683 16.38L170.711 14.256V0.719999H172.619V27H171.107V18.612H171.827C171.779 20.412 171.383 21.996 170.639 23.364C169.895 24.708 168.875 25.752 167.579 26.496C166.307 27.24 164.843 27.612 163.187 27.612ZM163.367 25.884C164.831 25.884 166.115 25.56 167.219 24.912C168.347 24.264 169.223 23.388 169.847 22.284C170.495 21.156 170.819 19.872 170.819 18.432V16.56C170.819 15.192 170.495 13.956 169.847 12.852C169.223 11.748 168.347 10.872 167.219 10.224C166.115 9.576 164.831 9.252 163.367 9.252C161.783 9.252 160.439 9.636 159.335 10.404C158.231 11.172 157.379 12.192 156.779 13.464C156.203 14.712 155.915 16.08 155.915 17.568C155.915 19.104 156.215 20.508 156.815 21.78C157.415 23.028 158.267 24.024 159.371 24.768C160.499 25.512 161.831 25.884 163.367 25.884ZM191.58 27V21.348H191.22V14.4C191.22 12.888 190.824 11.724 190.032 10.908C189.24 10.068 187.932 9.648 186.108 9.648C185.46 9.648 184.8 9.672 184.128 9.72C183.456 9.744 182.82 9.78 182.22 9.828C181.62 9.852 181.08 9.9 180.6 9.972V8.244C181.08 8.172 181.584 8.112 182.112 8.064C182.664 8.016 183.216 7.98 183.768 7.956C184.32 7.932 184.848 7.92 185.352 7.92C187.248 7.92 188.76 8.172 189.888 8.676C191.016 9.156 191.832 9.9 192.336 10.908C192.84 11.892 193.092 13.152 193.092 14.688V27H191.58ZM184.992 27.504C183.72 27.504 182.58 27.276 181.572 26.82C180.564 26.364 179.76 25.692 179.16 24.804C178.584 23.916 178.296 22.836 178.296 21.564C178.296 20.34 178.572 19.296 179.124 18.432C179.7 17.568 180.516 16.908 181.572 16.452C182.652 15.996 183.948 15.768 185.46 15.768H191.4V17.316H185.28C183.648 17.316 182.388 17.712 181.5 18.504C180.636 19.272 180.204 20.292 180.204 21.564C180.204 22.908 180.672 23.976 181.608 24.768C182.544 25.536 183.768 25.92 185.28 25.92C186.216 25.92 187.128 25.74 188.016 25.38C188.904 25.02 189.648 24.42 190.248 23.58C190.848 22.716 191.172 21.564 191.22 20.124L191.94 20.952C191.868 22.416 191.508 23.64 190.86 24.624C190.236 25.584 189.42 26.304 188.412 26.784C187.404 27.264 186.264 27.504 184.992 27.504ZM204.63 27L197.754 8.1H199.77L206.538 27H204.63ZM205.206 27V25.38H207.834V27H205.206ZM206.502 27L212.55 8.1H214.422L208.338 27H206.502Z" fill="white"/>
<path d="M217.773 27V24.228H220.293V27H217.773Z" fill="#F13024"/>
</svg>
